<svg xmlns="http://www.w3.org/2000/svg" width="20" height="20" viewBox="0 0 20 20" fill="none"><g clip-path="url(#clip0)"><path d="M4.9 9.1V10.9L6.2 10 4.9 9.1ZM9.5 7.8V5.3L5.3 8.1 7.2 9.4 9.5 7.8ZM14.7 8.1L10.5 5.3V7.8L12.8 9.4 14.7 8.1ZM5.3 11.9L9.5 14.7V12.2L7.2 10.6 5.3 11.9ZM10.5 12.2V14.7L14.7 11.9 12.8 10.6 10.5 12.2ZM10 8.7L8.1 10 10 11.3 11.9 10 10 8.7ZM10 0C4.5 0 0 4.5 0 10 0 15.5 4.5 20 10 20 15.5 20 20 15.5 20 10 20 4.5 15.5 0 10 0ZM16.2 11.9C16.2 11.9 16.2 11.9 16.2 12 16.2 12 16.2 12 16.2 12 16.2 12 16.2 12 16.2 12 16.2 12 16.2 12 16.2 12 16.2 12.1 16.1 12.1 16.1 12.1 16.1 12.1 16.1 12.1 16.1 12.1 16.1 12.1 16.1 12.1 16.1 12.1 16.1 12.2 16.1 12.2 16.1 12.2 16.1 12.2 16.1 12.2 16.1 12.2 16.1 12.2 16.1 12.2 16.1 12.2 16 12.2 16 12.2 16 12.3 16 12.3 16 12.3 16 12.3 16 12.3 16 12.3 16 12.3 16 12.3 16 12.3 16 12.3L15.9 12.3 10.3 16.1C10.2 16.2 10.1 16.2 10 16.2 9.9 16.2 9.8 16.2 9.7 16.1L4.1 12.3 4 12.3C4 12.3 4 12.3 4 12.3 4 12.3 4 12.3 4 12.3 4 12.3 4 12.3 4 12.3 4 12.2 4 12.2 3.9 12.2 3.9 12.2 3.9 12.2 3.9 12.2 3.9 12.2 3.9 12.2 3.9 12.2 3.9 12.2 3.9 12.2 3.9 12.1 3.9 12.1 3.9 12.1 3.9 12.1 3.9 12.1 3.9 12.1 3.9 12.1 3.9 12.1 3.8 12.1 3.8 12 3.8 12 3.8 12 3.8 12 3.8 12 3.8 12 3.8 12 3.8 12 3.8 12 3.8 12 3.8 11.9 3.8 11.9 3.8 11.9V8.1C3.8 8.1 3.8 8.1 3.8 8 3.8 8 3.8 8 3.8 8 3.8 8 3.8 8 3.8 8 3.8 8 3.8 8 3.8 8 3.8 7.9 3.9 7.9 3.9 7.9 3.9 7.9 3.9 7.9 3.9 7.9 3.9 7.9 3.9 7.9 3.9 7.9 3.9 7.8 3.9 7.8 3.9 7.8 3.9 7.8 3.9 7.8 3.9 7.8 3.9 7.8 3.9 7.8 3.9 7.8 3.9 7.8 4 7.8 4 7.7L4 7.7C4 7.7 4 7.7 4 7.7 4 7.7 4 7.7 4 7.7 4.1 7.7 4.1 7.7 4.1 7.7L9.7 3.9C9.8 3.8 9.9 3.8 10 3.8 10.1 3.8 10.2 3.8 10.3 3.9L15.9 7.7 16 7.7C16 7.7 16 7.7 16 7.7L16 7.7C16 7.7 16 7.7 16 7.7 16 7.8 16.1 7.8 16.1 7.8 16.1 7.8 16.1 7.8 16.1 7.8 16.1 7.8 16.1 7.8 16.1 7.8 16.1 7.8 16.1 7.8 16.1 7.9 16.1 7.9 16.1 7.9 16.1 7.9 16.1 7.9 16.1 7.9 16.1 7.9 16.1 7.9 16.2 7.9 16.2 8 16.2 8 16.2 8 16.2 8 16.2 8 16.2 8 16.2 8 16.2 8 16.2 8 16.2 8 16.2 8.1 16.2 8.1 16.2 8.1L16.2 11.9ZM15.1 10.9V9.1L13.8 10 15.1 10.9Z" fill="#EEF4F6"/></g><defs><clipPath><rect width="20" height="20" fill="white"/></clipPath></defs></svg>