<svg xmlns="http://www.w3.org/2000/svg" width="20" height="20" viewBox="0 0 20 20" fill="none"><g clip-path="url(#clip0)"><path fill-rule="evenodd" clip-rule="evenodd" d="M10 0C7.6 0 5.3 0.8 3.5 2.4 1.7 3.9 0.5 6.1 0.1 8.4 -0.3 10.7 0.2 13.1 1.4 15.2 2.7 17.2 4.6 18.7 6.8 19.5 7.4 19.6 7.5 19.3 7.5 19V17.3C4.7 17.9 4.1 16 4.1 16 4 15.4 3.6 14.8 3 14.5 2.1 13.9 3.1 13.9 3.1 13.9 3.4 13.9 3.7 14 4 14.2 4.3 14.4 4.5 14.6 4.6 14.9 4.8 15.2 5 15.4 5.2 15.5 5.4 15.7 5.6 15.9 5.9 15.9 6.2 16 6.5 16 6.8 16 7 16 7.3 15.9 7.5 15.7 7.6 15.2 7.8 14.8 8.2 14.4 5.9 14.2 3.6 13.3 3.6 9.5 3.6 8.5 4 7.5 4.6 6.8 4.3 6 4.4 5 4.7 4.2 4.7 4.2 5.6 3.9 7.5 5.2 9.1 4.7 10.9 4.7 12.5 5.2 14.4 3.9 15.2 4.2 15.2 4.2 15.6 5 15.6 5.9 15.4 6.8 16 7.5 16.4 8.5 16.4 9.5 16.4 13.3 14 14.2 11.8 14.4 12.1 14.6 12.2 14.9 12.4 15.2 12.5 15.6 12.5 15.9 12.5 16.2V19C12.5 19.3 12.7 19.6 13.2 19.5 15.4 18.7 17.3 17.2 18.5 15.1 19.7 13.1 20.2 10.7 19.8 8.4 19.4 6.1 18.2 3.9 16.4 2.4 14.6 0.9 12.4 0 10 0Z" fill="#EEF4F6"/></g><defs><clipPath><rect width="20" height="20" fill="white"/></clipPath></defs></svg>