<svg xmlns="http://www.w3.org/2000/svg" width="20" height="20" viewBox="0 0 20 20" fill="none"><path d="M5.6 0C4.1 0 2.7 0.6 1.6 1.6 0.6 2.7 0 4.1 0 5.6V14.4C0 15.9 0.6 17.3 1.6 18.4 2.7 19.4 4.1 20 5.6 20H14.4C15.9 20 17.3 19.4 18.4 18.4 19.4 17.3 20 15.9 20 14.4V5.6C20 4.1 19.4 2.7 18.4 1.6 17.3 0.6 15.9 0 14.4 0H5.6ZM16.7 2.2C17 2.2 17.2 2.3 17.5 2.5 17.7 2.8 17.8 3 17.8 3.3 17.8 3.6 17.7 3.9 17.5 4.1 17.2 4.3 17 4.4 16.7 4.4 16.4 4.4 16.1 4.3 15.9 4.1 15.7 3.9 15.6 3.6 15.6 3.3 15.6 3 15.7 2.8 15.9 2.5 16.1 2.3 16.4 2.2 16.7 2.2ZM10 4.4C10.7 4.4 11.5 4.6 12.1 4.9 12.8 5.1 13.4 5.6 13.9 6.1 14.4 6.6 14.9 7.2 15.1 7.9 15.4 8.5 15.6 9.3 15.6 10 15.6 10.7 15.4 11.5 15.1 12.1 14.9 12.8 14.4 13.4 13.9 13.9 13.4 14.4 12.8 14.9 12.1 15.1 11.5 15.4 10.7 15.6 10 15.6 8.5 15.6 7.1 15 6.1 13.9 5 12.9 4.4 11.5 4.4 10 4.4 8.5 5 7.1 6.1 6.1 7.1 5 8.5 4.4 10 4.4ZM10 6.7C9.1 6.7 8.3 7 7.6 7.6 7 8.3 6.7 9.1 6.7 10 6.7 10.9 7 11.7 7.6 12.4 8.3 13 9.1 13.3 10 13.3 10.9 13.3 11.7 13 12.4 12.4 13 11.7 13.3 10.9 13.3 10 13.3 9.1 13 8.3 12.4 7.6 11.7 7 10.9 6.7 10 6.7Z" fill="#EEF4F6"/></svg>