<svg xmlns="http://www.w3.org/2000/svg" width="20" height="20" viewBox="0 0 20 20" fill="none"><path d="M10 0C4.4 0 0 4.1 0 9.7 0 12.6 1.2 15.1 3.1 16.9 3.2 16.9 3.3 17 3.3 17.1 3.4 17.2 3.4 17.3 3.4 17.4L3.5 19.2C3.5 19.4 3.5 19.5 3.6 19.6 3.6 19.7 3.7 19.8 3.8 19.9 3.9 19.9 4.1 20 4.2 20 4.3 20 4.5 20 4.6 19.9L6.6 19.1C6.7 19 6.9 19 7.1 19 8 19.3 9 19.4 10 19.4 15.6 19.4 20 15.3 20 9.7 20 4.1 15.6 0 10 0ZM16 7.5L13.1 12.1C13 12.3 12.8 12.5 12.6 12.6 12.5 12.7 12.3 12.8 12.1 12.8 11.9 12.8 11.7 12.8 11.5 12.8 11.3 12.7 11.1 12.6 10.9 12.5L8.6 10.8C8.5 10.7 8.3 10.7 8.2 10.7 8.1 10.7 7.9 10.7 7.8 10.8L4.7 13.2C4.3 13.5 3.7 13 4 12.5L6.9 7.9C7 7.7 7.2 7.6 7.4 7.4 7.5 7.3 7.7 7.2 7.9 7.2 8.1 7.2 8.3 7.2 8.5 7.2 8.7 7.3 8.9 7.4 9.1 7.5L11.4 9.2C11.5 9.3 11.7 9.3 11.8 9.3 11.9 9.3 12.1 9.3 12.2 9.2L15.3 6.8C15.7 6.5 16.3 7 16 7.5Z" fill="#EEF4F6"/></svg>